<svg xmlns="http://www.w3.org/2000/svg" xmlns:xlink="http://www.w3.org/1999/xlink" width="1534.498" height="957.238" viewBox="0 0 1534.498 957.238">
  <defs>
    <linearGradient id="linear-gradient" y1="0.5" x2="1" y2="0.5" gradientUnits="objectBoundingBox">
      <stop offset="0" stop-color="#46f79e"/>
      <stop offset="0.548" stop-color="#1dead5"/>
      <stop offset="1" stop-color="#00e1ff"/>
    </linearGradient>
  </defs>
  <g id="Group_120" data-name="Group 120" transform="translate(-302.439 -40.345)" opacity="0.25">
    <g id="Livello_3" data-name="Livello 3" transform="translate(360.331 45.595)">
      <path id="Path_420" data-name="Path 420" d="M364.178,216.088l426.278-26.72L918.768,51.5" transform="translate(-337.948 -41.945)" fill="none" stroke="#00cc8d" stroke-miterlimit="10" stroke-width="1" opacity="0.3"/>
      <path id="Path_933" data-name="Path 933" d="M97.02,0-.053,164.131" transform="translate(21.055 4.095)" fill="none" stroke="#00cc8d" stroke-width="1" opacity="0.3"/>
      <path id="Path_421" data-name="Path 421" d="M572.5,48.6,714.463,190.558,689.893,44.5" transform="translate(-261.955 -44.5)" fill="none" stroke="#00cc8d" stroke-miterlimit="10" stroke-width="1" opacity="0.3"/>
      <line id="Line_2" data-name="Line 2" x1="77" y1="22" transform="translate(585.169 217.405)" fill="none" stroke="#00cc8d" stroke-miterlimit="10" stroke-width="1" opacity="0.3"/>
      <path id="Path_936" data-name="Path 936" d="M-6.726,139.483,234.423-3.826" transform="translate(429.472 251.047)" fill="none" stroke="#00cc8d" stroke-width="1" opacity="0.3"/>
      <path id="Path_422" data-name="Path 422" d="M359.757,189.1,455.4,406.761,791.2,151.5,753.256,391.031" transform="translate(-338.692 -5.442)" fill="none" stroke="#00cc8d" stroke-miterlimit="10" stroke-width="1" opacity="0.3"/>
      <path id="Path_937" data-name="Path 937" d="M186.235,139.834,0,0" transform="translate(426.169 404.405)" fill="none" stroke="#00cc8d" stroke-width="1" opacity="0.3"/>
      <line id="Line_5" data-name="Line 5" y1="203" x2="133" transform="translate(484.169 558.405)" fill="none" stroke="#00cc8d" stroke-miterlimit="10" stroke-width="1" opacity="0.3"/>
      <path id="Path_935" data-name="Path 935" d="M-7.246-20.548,57.231,323.9" transform="translate(420.744 437.258)" fill="none" stroke="#00cc8d" stroke-width="1" opacity="0.3"/>
      <path id="Path_934" data-name="Path 934" d="M0,0,278.445,1.258" transform="translate(116.71 401.319)" fill="none" stroke="#00cc8d" stroke-width="1" opacity="0.3"/>
      <line id="Line_8" data-name="Line 8" y1="46.804" x2="155.962" transform="translate(639.169 499.601)" fill="none" stroke="#00cc8d" stroke-miterlimit="10" stroke-width="1" opacity="0.3"/>
      <line id="Line_9" data-name="Line 9" x1="206.567" y1="250.318" transform="translate(634.169 559.405)" fill="none" stroke="#00cc8d" stroke-miterlimit="10" stroke-width="1" opacity="0.3"/>
      <line id="Line_10" data-name="Line 10" x2="337.894" y2="47.347" transform="translate(492.169 776.405)" fill="none" stroke="#00cc8d" stroke-miterlimit="10" stroke-width="1" opacity="0.3"/>
      <line id="Line_11" data-name="Line 11" x1="65" y1="160" transform="translate(489.169 781.405)" fill="none" stroke="#00cc8d" stroke-miterlimit="10" stroke-width="1" opacity="0.3"/>
      <path id="Path_939" data-name="Path 939" d="M102.241-13.794,0,109.838" transform="translate(1019.169 840.567)" fill="none" stroke="#00cc8d" stroke-width="1" opacity="0.3"/>
      <line id="Line_13" data-name="Line 13" y1="5" x2="260" transform="translate(856.169 818.405)" fill="none" stroke="#00cc8d" stroke-miterlimit="10" stroke-width="1" opacity="0.3"/>
      <path id="Path_938" data-name="Path 938" d="M170.643,114.755,7.271-6.772" transform="translate(847.169 836.405)" fill="none" stroke="#00cc8d" stroke-width="1" opacity="0.3"/>
      <path id="Path_944" data-name="Path 944" d="M252.753,287.93l-286.687-351" transform="translate(868.842 518.712)" fill="none" stroke="#00cc8d" stroke-width="1" opacity="0.3"/>
      <path id="Path_941" data-name="Path 941" d="M25.641-14.7l-31,288.684" transform="translate(1135.034 531.148)" fill="none" stroke="#00cc8d" stroke-width="1" opacity="0.3"/>
      <path id="Path_423" data-name="Path 423" d="M1177.827,720.833l309.205-199.423L1209.619,417.665" transform="translate(-39.417 92.853)" fill="none" stroke="#00cc8d" stroke-miterlimit="10" stroke-width="1" opacity="0.3"/>
      <path id="Path_940" data-name="Path 940" d="M308.1,0-7.042,18.731" transform="translate(1144.973 801.273)" fill="none" stroke="#00cc8d" stroke-width="1" opacity="0.3"/>
      <line id="Line_18" data-name="Line 18" x1="17.745" y2="195.199" transform="translate(994.425 382.209)" fill="none" stroke="#00cc8d" stroke-miterlimit="10" stroke-width="1" opacity="0.3"/>
      <path id="Path_947" data-name="Path 947" d="M76.438,259.113-5.8-25.979" transform="translate(1082.467 243.082)" fill="none" stroke="#00cc8d" stroke-width="1" opacity="0.3"/>
      <path id="Path_942" data-name="Path 942" d="M-28.512-43.878,288.06,14.2" transform="translate(867.209 494.22)" fill="none" stroke="#00cc8d" stroke-width="1" opacity="0.3"/>
      <path id="Path_945" data-name="Path 945" d="M2.357,234.478-11.788-57.96" transform="translate(838.812 516.927)" fill="none" stroke="#00cc8d" stroke-width="1" opacity="0.3"/>
      <line id="Line_22" data-name="Line 22" x2="134.616" y2="184.525" transform="translate(683.553 253.88)" fill="none" stroke="#00cc8d" stroke-miterlimit="10" stroke-width="1" opacity="0.3"/>
      <line id="Line_23" data-name="Line 23" y1="278.908" x2="47.565" transform="translate(627.604 255.405)" fill="none" stroke="#00cc8d" stroke-miterlimit="10" stroke-width="1" opacity="0.3"/>
      <line id="Line_24" data-name="Line 24" y1="11.81" x2="116.247" transform="translate(691.169 226.595)" fill="none" stroke="#00cc8d" stroke-miterlimit="10" stroke-width="1" opacity="0.3"/>
      <line id="Line_25" data-name="Line 25" x2="67.682" y2="222.31" transform="translate(609.486 4.095)" fill="none" stroke="#00cc8d" stroke-miterlimit="10" stroke-width="1" opacity="0.3"/>
      <path id="Path_424" data-name="Path 424" d="M1020.191,47.5l25.936,31.4L846.813,273.772" transform="translate(-160.904 -43.405)" fill="none" stroke="#00cc8d" stroke-miterlimit="10" stroke-width="1" opacity="0.3"/>
      <line id="Line_26" data-name="Line 26" x1="12.285" y2="45.046" transform="translate(745.989)" fill="none" stroke="#00cc8d" stroke-miterlimit="10" stroke-width="1" opacity="0.3"/>
      <path id="Path_943" data-name="Path 943" d="M177.6-14.13-45.848,209.235" transform="translate(881.541 229.072)" fill="none" stroke="#00cc8d" stroke-width="1" opacity="0.3"/>
      <path id="Path_425" data-name="Path 425" d="M881.5,47.5l152.884,31.4,173.69,163.4" transform="translate(-149.161 -43.405)" fill="none" stroke="#00cc8d" stroke-miterlimit="10" stroke-width="1" opacity="0.3"/>
      <path id="Path_946" data-name="Path 946" d="M.02-5.234-6.3,193.289" transform="translate(1080.422)" fill="none" stroke="#00cc8d" stroke-width="1" opacity="0.3"/>
      <line id="Line_29" data-name="Line 29" x1="230" y2="159" transform="translate(1079.169 38.405)" fill="none" stroke="#00cc8d" stroke-miterlimit="10" stroke-width="1" opacity="0.3"/>
      <path id="Path_949" data-name="Path 949" d="M109,62.617-13.46-7.887" transform="translate(1341.345 45.22)" fill="none" stroke="#00cc8d" stroke-width="1" opacity="0.3"/>
      <path id="Path_426" data-name="Path 426" d="M1486.88,549.046,1396.788,281.5,1273.936,396.163l-73.8,65.441" transform="translate(-32.44 42.012)" fill="none" stroke="#00cc8d" stroke-miterlimit="10" stroke-width="1" opacity="0.3"/>
      <path id="Path_427" data-name="Path 427" d="M1509.408,340.908l-95.552-32.761-282.65-113.8" transform="translate(-49.508 15.365)" fill="none" stroke="#00cc8d" stroke-miterlimit="10" stroke-width="1" opacity="0.3"/>
      <path id="Path_428" data-name="Path 428" d="M1311,72.068l43.88,280.443,95.552-167.9" transform="translate(9.465 -28.999)" fill="none" stroke="#00cc8d" stroke-miterlimit="10" stroke-width="1" opacity="0.3"/>
      <path id="Path_951" data-name="Path 951" d="M-2.151-7.441,57.01,23.665" transform="translate(1249.686 4.095)" fill="none" stroke="#00cc8d" stroke-width="1" opacity="0.3"/>
      <path id="Path_950" data-name="Path 950" d="M-5.638,22.011-1.246-6.745" transform="translate(1331.678 2.73)" fill="none" stroke="#00cc8d" stroke-width="1" opacity="0.3"/>
      <line id="Line_33" data-name="Line 33" x2="9.32" y2="25.169" transform="translate(1307.169 -4.595)" fill="none" stroke="#00cc8d" stroke-miterlimit="10" stroke-width="1" opacity="0.3"/>
      <circle id="Ellipse_1" data-name="Ellipse 1" cx="12.928" cy="12.928" r="12.928" transform="translate(466.158 760.322)" opacity="0.3" fill="url(#linear-gradient)"/>
      <circle id="Ellipse_2" data-name="Ellipse 2" cx="13.166" cy="13.166" r="13.166" transform="translate(829.574 809.686)" opacity="0.3" fill="url(#linear-gradient)"/>
      <circle id="Ellipse_3" data-name="Ellipse 3" cx="11.245" cy="11.245" r="11.245" transform="translate(1115.77 805.051)" opacity="0.3" fill="url(#linear-gradient)"/>
      <circle id="Ellipse_4" data-name="Ellipse 4" cx="7.333" cy="7.333" r="7.333" transform="translate(1155.356 501.649)" opacity="0.3" fill="url(#linear-gradient)"/>
      <circle id="Ellipse_5" data-name="Ellipse 5" cx="11.936" cy="11.936" r="11.936" transform="translate(814.924 434.793)" opacity="0.3" fill="url(#linear-gradient)"/>
      <circle id="Ellipse_6" data-name="Ellipse 6" cx="13.658" cy="13.658" r="13.658" transform="translate(612.074 534.41)" opacity="0.3" fill="url(#linear-gradient)"/>
      <circle id="Ellipse_7" data-name="Ellipse 7" cx="15.666" cy="15.666" r="15.666" transform="translate(395.184 385.345)" opacity="0.3" fill="url(#linear-gradient)"/>
      <circle id="Ellipse_8" data-name="Ellipse 8" cx="8.15" cy="8.15" r="8.15" transform="translate(10 167.851)" opacity="0.3" fill="url(#linear-gradient)"/>
      <circle id="Ellipse_9" data-name="Ellipse 9" cx="14.11" cy="14.11" r="14.11" transform="translate(662.669 227.183)" opacity="0.3" fill="url(#linear-gradient)"/>
      <circle id="Ellipse_10" data-name="Ellipse 10" cx="12.936" cy="12.936" r="12.936" transform="translate(1056.074 192.787)" opacity="0.3" fill="url(#linear-gradient)"/>
      <circle id="Ellipse_11" data-name="Ellipse 11" cx="11.11" cy="11.11" r="11.11" transform="translate(1306.605 20.793)" opacity="0.3" fill="url(#linear-gradient)"/>
    </g>
    <g id="Livello_2" data-name="Livello 2" transform="translate(303 41.5)">
      <path id="Path_429" data-name="Path 429" d="M365.791,42l12.285,75.077L303,340.942,499.565,586.647,388.314,916.3l526.9,70.982L1200.508,809.83l177.454,187.009,218.405-60.061,90.092-289.387,128.313,65.521" transform="translate(-303 -41.317)" fill="none" stroke="#00d37a" stroke-miterlimit="10" stroke-width="1"/>
      <path id="Path_430" data-name="Path 430" d="M380.5,760.107,627.571,631.794,867.816,432.5l83.267,184.279-64.156,227.96" transform="translate(-274.71 101.227)" fill="none" stroke="#00d37a" stroke-miterlimit="10" stroke-width="1"/>
      <path id="Path_431" data-name="Path 431" d="M358.5,116.577,555.065,67.436,916.8,258.54l232.055,13.65,292.117-10.92L1334.5,41.5" transform="translate(-282.741 -41.5)" fill="none" stroke="#00d37a" stroke-miterlimit="10" stroke-width="1"/>
      <path id="Path_432" data-name="Path 432" d="M1234.767,41.5,1151.5,261.27l118.758,222.5,106.472,163.8,150.153-128.313" transform="translate(6.729 -41.5)" fill="none" stroke="#00d37a" stroke-miterlimit="10" stroke-width="1"/>
      <path id="Path_433" data-name="Path 433" d="M363.57,124.859,413.1,242.16,673.822,130.176,792.58,41.5" transform="translate(-282.741 -41.5)" fill="none" stroke="#00d37a" stroke-miterlimit="10" stroke-width="1"/>
      <path id="Path_434" data-name="Path 434" d="M848.724,41.5,882.85,258.54,848.724,575.227l259.356-43.681L878.755,259.9,627.589,378.663,451.5,582.052,597.558,769.062,861.181,987.17" transform="translate(-248.793 -41.5)" fill="none" stroke="#00d37a" stroke-miterlimit="10" stroke-width="1"/>
      <path id="Path_435" data-name="Path 435" d="M561.5,619.018,889.107,604l217.04,46.411L1257.666,467.5l27.066,373.051" transform="translate(-208.639 114.003)" fill="none" stroke="#00d37a" stroke-miterlimit="10" stroke-width="1"/>
      <path id="Path_436" data-name="Path 436" d="M798.5,620.409,981.414,404.5,1016.9,666.586" transform="translate(-122.127 91.006)" fill="none" stroke="#00d37a" stroke-miterlimit="10" stroke-width="1"/>
      <path id="Path_437" data-name="Path 437" d="M932.5,400.5l189.739,91.457,241.554,308.928" transform="translate(-73.213 89.546)" fill="none" stroke="#00d37a" stroke-miterlimit="10" stroke-width="1"/>
      <path id="Path_438" data-name="Path 438" d="M936.5,423.782,1143.985,325.5l203.389,62.791-222.5,129.678L1447.022,543.9" transform="translate(-71.753 62.169)" fill="none" stroke="#00d37a" stroke-miterlimit="10" stroke-width="1"/>
      <line id="Line_34" data-name="Line 34" x1="126.948" y1="257.991" transform="translate(1384.824 610.169)" fill="none" stroke="#00d37a" stroke-miterlimit="10" stroke-width="1"/>
      <path id="Path_439" data-name="Path 439" d="M836.5,52.42l75.077,38.221L1135.442,41.5" transform="translate(-108.256 -41.5)" fill="none" stroke="#00d37a" stroke-miterlimit="10" stroke-width="1"/>
      <path id="Path_440" data-name="Path 440" d="M770.517,253.5,933.844,90.276,995.27,271.825,1169.994,42.5" transform="translate(-130.523 -41.135)" fill="none" stroke="#00d37a" stroke-miterlimit="10" stroke-width="1"/>
      <path id="Path_441" data-name="Path 441" d="M1366.58,42.5l122.853,151.518L1231.442,260.9,1146.81,428.8,937.96,271.825l-4.313,250.747" transform="translate(-73.213 -41.135)" fill="none" stroke="#00d37a" stroke-miterlimit="10" stroke-width="1"/>
      <path id="Path_442" data-name="Path 442" d="M1377.733,153.5,1238.5,442.887l256.626-13.65" transform="translate(38.486 -0.617)" fill="none" stroke="#00d37a" stroke-miterlimit="10" stroke-width="1"/>
      <path id="Path_443" data-name="Path 443" d="M693.9,106.5,681.614,354.936l-248.436-136.5L303.5,315.35" transform="translate(-302.817 -17.773)" fill="none" stroke="#00d37a" stroke-miterlimit="10" stroke-width="1"/>
      <path id="Path_444" data-name="Path 444" d="M540.463,59.5,398.5,235.589l72.347,339.893,390.4-6.825L745.218,441.709l-98.282-69.617" transform="translate(-268.14 -34.929)" fill="none" stroke="#00d37a" stroke-miterlimit="10" stroke-width="1"/>
      <path id="Path_948" data-name="Path 948" d="M-.861,73.035,84.562,0" transform="translate(1426.528 77.124)" fill="none" stroke="#00d37a" stroke-width="1"/>
      <path id="Path_445" data-name="Path 445" d="M1430.5,237.672l-86-79.172,86,129.678" transform="translate(77.18 1.209)" fill="none" stroke="#00d37a" stroke-miterlimit="10" stroke-width="1"/>
      <line id="Line_36" data-name="Line 36" y1="64.156" x2="62.791" transform="translate(83.267 4.778)" fill="none" stroke="#00d37a" stroke-miterlimit="10" stroke-width="1"/>
      <line id="Line_37" data-name="Line 37" x1="21.84" y2="72.347" transform="translate(391.081 8.19)" fill="none" stroke="#00d37a" stroke-miterlimit="10" stroke-width="1"/>
      <circle id="Ellipse_12" data-name="Ellipse 12" cx="11.563" cy="11.563" r="11.563" transform="translate(1406.522 144.551)" fill="url(#linear-gradient)"/>
      <circle id="Ellipse_13" data-name="Ellipse 13" cx="9.515" cy="9.515" r="9.515" transform="translate(67.379 65.791)" fill="url(#linear-gradient)"/>
      <circle id="Ellipse_14" data-name="Ellipse 14" cx="9.333" cy="9.333" r="9.333" transform="translate(120.028 191.787)" fill="url(#linear-gradient)"/>
      <circle id="Ellipse_15" data-name="Ellipse 15" cx="10.238" cy="10.238" r="10.238" transform="translate(380.844 78.489)" fill="url(#linear-gradient)"/>
      <circle id="Ellipse_16" data-name="Ellipse 16" cx="8.603" cy="8.603" r="8.603" transform="translate(369.558 328.925)" fill="url(#linear-gradient)"/>
      <circle id="Ellipse_17" data-name="Ellipse 17" cx="11.428" cy="11.428" r="11.428" transform="translate(189.184 528.95)" fill="url(#linear-gradient)"/>
      <circle id="Ellipse_18" data-name="Ellipse 18" cx="11.936" cy="11.936" r="11.936" transform="translate(340.972 719.673)" fill="url(#linear-gradient)"/>
      <circle id="Ellipse_19" data-name="Ellipse 19" cx="14.158" cy="14.158" r="14.158" transform="translate(579.218 522.934)" fill="url(#linear-gradient)"/>
      <circle id="Ellipse_20" data-name="Ellipse 20" cx="11.198" cy="11.198" r="11.198" transform="translate(665.675 705.943)" fill="url(#linear-gradient)"/>
      <circle id="Ellipse_21" data-name="Ellipse 21" cx="11.206" cy="11.206" r="11.206" transform="translate(885.62 753.259)" fill="url(#linear-gradient)"/>
      <circle id="Ellipse_22" data-name="Ellipse 22" cx="10.063" cy="10.063" r="10.063" transform="translate(849.177 480.443)" fill="url(#linear-gradient)"/>
      <circle id="Ellipse_23" data-name="Ellipse 23" cx="10.618" cy="10.618" r="10.618" transform="translate(1266.098 435.112)" fill="url(#linear-gradient)"/>
      <circle id="Ellipse_24" data-name="Ellipse 24" cx="7.428" cy="7.428" r="7.428" transform="translate(1375.144 598.281)" fill="url(#linear-gradient)"/>
      <circle id="Ellipse_25" data-name="Ellipse 25" cx="6.785" cy="6.785" r="6.785" transform="translate(1286.399 887.858)" fill="url(#linear-gradient)"/>
      <circle id="Ellipse_26" data-name="Ellipse 26" cx="8.603" cy="8.603" r="8.603" transform="translate(1057.899 374.701)" fill="url(#linear-gradient)"/>
      <circle id="Ellipse_27" data-name="Ellipse 27" cx="8.88" cy="8.88" r="8.88" transform="translate(1148.436 210.707)" fill="url(#linear-gradient)"/>
      <circle id="Ellipse_28" data-name="Ellipse 28" cx="12.071" cy="12.071" r="12.071" transform="translate(620.709 206.787)" fill="url(#linear-gradient)"/>
      <circle id="Ellipse_29" data-name="Ellipse 29" cx="5.511" cy="5.511" r="5.511" transform="translate(1044.963 575.977)" fill="url(#linear-gradient)"/>
    </g>
  </g>
</svg>
